<svg xmlns="http://www.w3.org/2000/svg" viewBox="0 0 60 60"><title>Small Ones</title><g id="Layer_2" data-name="Layer 2"><g id="Layer_1-2" data-name="Layer 1"><path d="M8.05,17.2a1.41,1.41,0,0,0-.58-.14,1.24,1.24,0,0,0-.53.12,1.61,1.61,0,0,0-.46.35,2.44,2.44,0,0,0-.37.54,2.52,2.52,0,0,0-.17.44,1.42,1.42,0,0,0-.05.5,1,1,0,0,0,.14.47.92.92,0,0,0,.41.36.78.78,0,0,0,.52.1,1.16,1.16,0,0,0,.47-.21,2.81,2.81,0,0,0,.43-.42c.14-.16.28-.33.41-.51s.29-.34.44-.5a2.16,2.16,0,0,1,.48-.39,1.19,1.19,0,0,1,.54-.18,1.26,1.26,0,0,1,.63.15,1.3,1.3,0,0,1,.53.47,1.47,1.47,0,0,1,.2.6,1.75,1.75,0,0,1-.05.64,2.48,2.48,0,0,1-.21.58,3.76,3.76,0,0,1-.48.72,1.89,1.89,0,0,1-.6.47,1.66,1.66,0,0,1-.73.16,2.07,2.07,0,0,1-.83-.24L8.34,21a1.36,1.36,0,0,0,.7.22,1.17,1.17,0,0,0,.61-.14,1.55,1.55,0,0,0,.52-.41,3.25,3.25,0,0,0,.41-.61,2.87,2.87,0,0,0,.18-.47,1.91,1.91,0,0,0,.05-.53,1.28,1.28,0,0,0-.16-.49,1,1,0,0,0-.43-.39.88.88,0,0,0-.55-.11,1.14,1.14,0,0,0-.48.21,2.38,2.38,0,0,0-.44.41q-.21.24-.42.51c-.14.17-.28.34-.43.5a2.13,2.13,0,0,1-.47.4,1.29,1.29,0,0,1-.53.18,1.12,1.12,0,0,1-.61-.14,1.3,1.3,0,0,1-.49-.43,1.25,1.25,0,0,1-.19-.56,1.81,1.81,0,0,1,0-.61A2.66,2.66,0,0,1,5.86,18a3.76,3.76,0,0,1,.43-.64,1.79,1.79,0,0,1,.54-.42,1.62,1.62,0,0,1,.63-.15,1.78,1.78,0,0,1,.74.18Z"/><path d="M9.06,21.78H9a2,2,0,0,1-.95-.27.25.25,0,0,1-.1-.34l.14-.29a.25.25,0,0,1,.16-.12.23.23,0,0,1,.2,0A1.32,1.32,0,0,0,9,21a1.22,1.22,0,0,0,.5-.11,1.46,1.46,0,0,0,.44-.36,2.47,2.47,0,0,0,.37-.56,1.6,1.6,0,0,0,.16-.42,1.26,1.26,0,0,0,0-.43.89.89,0,0,0-.12-.39.73.73,0,0,0-.33-.29.59.59,0,0,0-.39-.09.93.93,0,0,0-.37.16,2.69,2.69,0,0,0-.39.37l-.42.51c-.14.18-.29.35-.44.52a2.38,2.38,0,0,1-.53.44,1.43,1.43,0,0,1-.63.21,1.31,1.31,0,0,1-.75-.16,1.62,1.62,0,0,1-.6-.52,1.67,1.67,0,0,1-.23-.67,2.09,2.09,0,0,1,.05-.7,2.73,2.73,0,0,1,.24-.64,3.45,3.45,0,0,1,.46-.69,2.08,2.08,0,0,1,.61-.47,1.6,1.6,0,0,1,.75-.18,2.07,2.07,0,0,1,.84.19.26.26,0,0,1,.14.15.3.3,0,0,1,0,.21l-.15.28a.27.27,0,0,1-.34.12,1,1,0,0,0-.89,0,1.42,1.42,0,0,0-.38.29,2.62,2.62,0,0,0-.33.49,2,2,0,0,0-.15.39,1.18,1.18,0,0,0-.05.41.89.89,0,0,0,.11.36.77.77,0,0,0,.31.27.61.61,0,0,0,.36.07.76.76,0,0,0,.35-.17,2.21,2.21,0,0,0,.39-.37l.41-.51c.15-.18.3-.36.45-.52a2.37,2.37,0,0,1,.54-.43,1.29,1.29,0,0,1,.66-.21,1.39,1.39,0,0,1,.76.18,1.45,1.45,0,0,1,.63.56,1.61,1.61,0,0,1,.23.7,2,2,0,0,1-.05.73,3,3,0,0,1-.24.64,3.55,3.55,0,0,1-.51.77,2.13,2.13,0,0,1-.68.53A1.85,1.85,0,0,1,9.06,21.78Z"/><path d="M8.72,13.5,9,13.17,13.93,15h0l-2.13-4.78.31-.33,3.77,3.56-.22.24-3.48-3.3h0l2.12,4.73-.22.23L9.23,13.53h0l3.48,3.29-.22.24Z"/><path d="M12.48,17.32a.23.23,0,0,1-.17-.07L8.54,13.69a.25.25,0,0,1-.08-.18.24.24,0,0,1,.07-.18L8.84,13a.27.27,0,0,1,.28-.07l4.34,1.64-1.89-4.23a.26.26,0,0,1,0-.28l.32-.33a.23.23,0,0,1,.18-.08.22.22,0,0,1,.18.07l3.76,3.56a.25.25,0,0,1,0,.36l-.22.23a.27.27,0,0,1-.18.08.23.23,0,0,1-.19-.07l-2.56-2.43L14.54,15a.27.27,0,0,1,0,.28l-.22.23a.26.26,0,0,1-.28.06l-3.69-1.4,2.58,2.44a.23.23,0,0,1,.08.18.31.31,0,0,1-.07.18l-.22.23A.24.24,0,0,1,12.48,17.32Z"/><path d="M16.1,7.13,16.4,7l4.41,3.41-.29.17L19.1,9.44,17,10.71l.28,1.76-.29.18Zm2.78,2.12L16.42,7.3h0l.51,3.11Z"/><path d="M17,12.9l-.11,0a.25.25,0,0,1-.14-.19l-.86-5.52A.24.24,0,0,1,16,6.91l.3-.18a.24.24,0,0,1,.29,0L21,10.15a.26.26,0,0,1,.09.22.26.26,0,0,1-.12.21l-.29.17a.26.26,0,0,1-.29,0l-1.27-1-1.84,1.1.26,1.59a.26.26,0,0,1-.13.26l-.29.18A.28.28,0,0,1,17,12.9Zm-.2-5,.35,2.1,1.32-.78Z"/><path d="M20.56,4.93l.3-.09,1.48,4.68,2.81-.89.08.26-3.11,1Z"/><path d="M22.12,10.13a.27.27,0,0,1-.12,0,.23.23,0,0,1-.12-.15L20.31,5a.26.26,0,0,1,.17-.32l.3-.1a.27.27,0,0,1,.2,0,.32.32,0,0,1,.13.15l1.4,4.43,2.56-.81a.25.25,0,0,1,.19,0,.24.24,0,0,1,.13.15l.08.26a.25.25,0,0,1-.16.32l-3.11,1Z"/><path d="M26.15,3.51l.32,0,.45,4.88,2.93-.27,0,.28-3.25.3Z"/><path d="M26.63,8.92a.25.25,0,0,1-.26-.23L25.9,3.53A.23.23,0,0,1,26,3.34a.26.26,0,0,1,.17-.09l.32,0a.26.26,0,0,1,.28.23l.42,4.64,2.68-.25A.2.2,0,0,1,30,7.9a.23.23,0,0,1,.1.17l0,.28a.25.25,0,0,1-.23.27l-3.25.3Z"/><path d="M39.63,7.7a3.26,3.26,0,0,1-.48,1,2.45,2.45,0,0,1-.72.68,2.15,2.15,0,0,1-.91.32,2.68,2.68,0,0,1-2-.62,2.35,2.35,0,0,1-.77-1.75,3.33,3.33,0,0,1,.15-1.07,3.6,3.6,0,0,1,.48-1,2.57,2.57,0,0,1,.72-.68A2.07,2.07,0,0,1,37,4.27a2.69,2.69,0,0,1,2,.62,2,2,0,0,1,.56.78,2.55,2.55,0,0,1,.21,1A3.59,3.59,0,0,1,39.63,7.7Zm-4.4-1.37a2.79,2.79,0,0,0-.14.94,2.2,2.2,0,0,0,.17.86,2.12,2.12,0,0,0,.48.71,2.29,2.29,0,0,0,.81.46,2.11,2.11,0,0,0,.92.08,2.21,2.21,0,0,0,.8-.3,2.32,2.32,0,0,0,.63-.62,2.93,2.93,0,0,0,.42-.85,3.19,3.19,0,0,0,.15-1,2.4,2.4,0,0,0-.17-.86,1.89,1.89,0,0,0-.49-.7,1.92,1.92,0,0,0-.8-.46,2,2,0,0,0-.93-.08,1.9,1.9,0,0,0-.8.3,2.28,2.28,0,0,0-.63.61A3,3,0,0,0,35.23,6.33Z"/><path d="M37.25,9.94a3,3,0,0,1-1.88-.7,2.58,2.58,0,0,1-.64-.87,2.92,2.92,0,0,1-.22-1.07,3.61,3.61,0,0,1,.17-1.15,3.54,3.54,0,0,1,.51-1A3,3,0,0,1,36,4.37,2.59,2.59,0,0,1,37,4a3,3,0,0,1,1.17.12,2.82,2.82,0,0,1,1,.57,2.43,2.43,0,0,1,.63.87A2.64,2.64,0,0,1,40,6.63a3.57,3.57,0,0,1-.17,1.15h0a3.73,3.73,0,0,1-.51,1,2.81,2.81,0,0,1-.79.75,2.76,2.76,0,0,1-1,.35Zm.11-5.15-.24,0a1.91,1.91,0,0,0-.7.26,2.09,2.09,0,0,0-.56.55,2.59,2.59,0,0,0-.39.78h0a2.91,2.91,0,0,0-.13.87,2.45,2.45,0,0,0,.15.77,1.83,1.83,0,0,0,.43.61,1.76,1.76,0,0,0,.71.4,1.73,1.73,0,0,0,.8.08,1.86,1.86,0,0,0,.7-.27,2.24,2.24,0,0,0,.57-.54,2.94,2.94,0,0,0,.51-1.65,1.92,1.92,0,0,0-.15-.77,2,2,0,0,0-.42-.62,1.88,1.88,0,0,0-.71-.4A2,2,0,0,0,37.36,4.79ZM35.23,6.33Z"/><path d="M43.18,6.62l.33.22.11,5.77h0l2.62-4,.27.17-2.86,4.33L43.35,13l-.11-5.82h0l-2.64,4-.27-.18Z"/><path d="M43.66,13.41a.23.23,0,0,1-.14,0l-.31-.21a.26.26,0,0,1-.12-.21l-.09-5-2.2,3.32a.26.26,0,0,1-.36.07l-.26-.17a.25.25,0,0,1-.11-.16.24.24,0,0,1,0-.2L43,6.48a.24.24,0,0,1,.35-.07l.33.22a.24.24,0,0,1,.12.21l.09,5L46,8.51a.27.27,0,0,1,.36-.07l.26.18a.23.23,0,0,1,.11.16.21.21,0,0,1,0,.19L43.88,13.3a.34.34,0,0,1-.17.11Z"/><path d="M48.93,11l2.34,2.59-.21.18-2.12-2.35-1.54,1.4,2,2.2-.21.19-2-2.21L45.5,14.5l2.15,2.38-.2.18-2.37-2.61Z"/><path d="M47.45,17.32h0a.28.28,0,0,1-.17-.09l-2.37-2.61a.3.3,0,0,1-.06-.18.23.23,0,0,1,.08-.18l3.85-3.48a.25.25,0,0,1,.36,0l2.34,2.58a.26.26,0,0,1,.06.19.25.25,0,0,1-.08.18l-.21.18a.25.25,0,0,1-.36,0l-1.95-2.15-1.16,1,1.83,2a.31.31,0,0,1,.06.19.23.23,0,0,1-.08.17l-.21.19a.25.25,0,0,1-.36,0l-1.82-2-1.31,1.19,2,2.18a.26.26,0,0,1,0,.37l-.2.18A.28.28,0,0,1,47.45,17.32Z"/><path d="M53.19,19.56a1.32,1.32,0,0,0,.44-.4,1.15,1.15,0,0,0,.2-.5,1.58,1.58,0,0,0,0-.57,2.64,2.64,0,0,0-.24-.62,2.94,2.94,0,0,0-.26-.39,1.7,1.7,0,0,0-.38-.33,1.07,1.07,0,0,0-.47-.14.89.89,0,0,0-.53.13.76.76,0,0,0-.38.37,1,1,0,0,0-.09.5,2.7,2.7,0,0,0,.1.59l.18.64a5,5,0,0,1,.17.64,1.9,1.9,0,0,1,.05.62,1.34,1.34,0,0,1-.16.55,1.24,1.24,0,0,1-.49.43,1.34,1.34,0,0,1-.68.17,1.5,1.5,0,0,1-.6-.18,1.61,1.61,0,0,1-.5-.4,2.16,2.16,0,0,1-.36-.51,3.52,3.52,0,0,1-.32-.8,1.85,1.85,0,0,1-.05-.77,1.61,1.61,0,0,1,.28-.68,1.85,1.85,0,0,1,.67-.54l.15.28a1.4,1.4,0,0,0-.57.45,1.28,1.28,0,0,0-.24.58,1.67,1.67,0,0,0,0,.66,3.09,3.09,0,0,0,.27.69,2.06,2.06,0,0,0,.29.41,1.45,1.45,0,0,0,.4.34,1.17,1.17,0,0,0,.49.15,1,1,0,0,0,.57-.13.89.89,0,0,0,.4-.39,1.26,1.26,0,0,0,.11-.51,3.36,3.36,0,0,0-.09-.6c-.06-.21-.12-.42-.19-.64s-.12-.43-.17-.64a2.21,2.21,0,0,1-.06-.61,1.2,1.2,0,0,1,.15-.53,1.1,1.1,0,0,1,.47-.43,1.23,1.23,0,0,1,.63-.16,1.29,1.29,0,0,1,.57.16,1.87,1.87,0,0,1,.48.38,2.76,2.76,0,0,1,.63,1.22,1.76,1.76,0,0,1,0,.68,1.45,1.45,0,0,1-.24.61,1.72,1.72,0,0,1-.56.5Z"/><path d="M50.7,21.5h-.09a1.93,1.93,0,0,1-.71-.2,2.06,2.06,0,0,1-.56-.46,2.9,2.9,0,0,1-.4-.56,3.66,3.66,0,0,1-.34-.86,2.11,2.11,0,0,1-.05-.86,1.8,1.8,0,0,1,.32-.8,2.12,2.12,0,0,1,.77-.62.25.25,0,0,1,.34.11l.15.28a.27.27,0,0,1,0,.2.23.23,0,0,1-.14.15,1.25,1.25,0,0,0-.48.37,1.14,1.14,0,0,0-.19.47,1.56,1.56,0,0,0,0,.56,2.8,2.8,0,0,0,.26.63,2,2,0,0,0,.25.36,1.13,1.13,0,0,0,.34.28,1,1,0,0,0,.39.13.78.78,0,0,0,.42-.11.7.7,0,0,0,.29-.27.87.87,0,0,0,.08-.4,2.13,2.13,0,0,0-.08-.53q-.07-.32-.18-.63T51,18.08a2.73,2.73,0,0,1-.06-.68,1.47,1.47,0,0,1,.18-.65,1.27,1.27,0,0,1,.57-.52,1.43,1.43,0,0,1,.76-.19,1.6,1.6,0,0,1,.68.18,2.27,2.27,0,0,1,.55.44,2.68,2.68,0,0,1,.39.56,2.93,2.93,0,0,1,.3.77,2,2,0,0,1,0,.77,1.6,1.6,0,0,1-.28.72,1.91,1.91,0,0,1-.64.58.24.24,0,0,1-.2,0,.26.26,0,0,1-.16-.13L53,19.68a.26.26,0,0,1,.1-.34,1.13,1.13,0,0,0,.36-.32.87.87,0,0,0,.16-.4,1.31,1.31,0,0,0,0-.48,2.15,2.15,0,0,0-.45-.9A1.31,1.31,0,0,0,52.8,17a.89.89,0,0,0-.36-.11.75.75,0,0,0-.39.1.57.57,0,0,0-.26.25.74.74,0,0,0-.07.39,1.78,1.78,0,0,0,.09.53q.07.32.18.63a5.48,5.48,0,0,1,.17.67,2.69,2.69,0,0,1,.06.68,1.58,1.58,0,0,1-.2.67,1.56,1.56,0,0,1-.58.52A1.53,1.53,0,0,1,50.7,21.5Z"/><path d="M44.86,37.14h-.09a.38.38,0,0,1-.28-.45,22.59,22.59,0,0,0,.84-5.89,7.34,7.34,0,0,0-2.1-5.21c-2.09-1.95-5.3-2-8.17-1.74a3.33,3.33,0,0,0-2.65,1.06,3.37,3.37,0,0,0-.17,2.21c.26,1.85.73,3.82,2.26,4.44a4.54,4.54,0,0,0,2.68,0c1.35-.31,1.57-.6,1.61-.68A1.74,1.74,0,0,0,38,29a4,4,0,0,0-2-.25.37.37,0,1,1,0-.74,4.53,4.53,0,0,1,2.43.33,2.47,2.47,0,0,1,1.11,2.87c-.28.6-1.28.9-2.12,1.1a5.22,5.22,0,0,1-3.13,0c-1.88-.77-2.43-3-2.72-5a4,4,0,0,1,.27-2.71c.66-1.07,2-1.32,3.23-1.42,2.85-.23,6.42-.22,8.74,1.94a8.08,8.08,0,0,1,2.33,5.74,22.94,22.94,0,0,1-.85,6.08A.37.37,0,0,1,44.86,37.14Z"/><path d="M33.45,34.1h-.11a4.26,4.26,0,0,1-3-1.52,7.49,7.49,0,0,1-1.45-2.84A15.19,15.19,0,0,1,28.27,25a4.88,4.88,0,0,1,.85-3c1.19-1.49,3.45-1.52,5-1.09s6.18,2.24,6.38,2.31a.38.38,0,1,1-.28.7S35.53,22.13,34,21.69c-1.36-.37-3.28-.37-4.24.83A4.15,4.15,0,0,0,29,25a14.29,14.29,0,0,0,.62,4.49,7.09,7.09,0,0,0,1.3,2.57,3.53,3.53,0,0,0,2.43,1.26,2.09,2.09,0,0,0,2.06-1.25.38.38,0,0,1,.48-.23.37.37,0,0,1,.23.47A2.79,2.79,0,0,1,33.45,34.1Z"/><path d="M30.75,34.92a1.37,1.37,0,0,1-.29,0,3.93,3.93,0,0,1-2.15-1.13c-2.23-2.11-2.8-5.2-3.23-8.45-.2-1.45-.31-3,.6-4.09A4,4,0,0,1,28.83,20a11.14,11.14,0,0,1,3.27.68.38.38,0,0,1,.25.47.38.38,0,0,1-.47.25,10.88,10.88,0,0,0-3.06-.66,3.25,3.25,0,0,0-2.56,1c-.72.9-.61,2.24-.44,3.53.41,3.11.95,6.06,3,8a3.1,3.1,0,0,0,1.72.94A1.37,1.37,0,0,0,32,33.49a.37.37,0,1,1,.69.29A2,2,0,0,1,30.75,34.92Z"/><path d="M34.32,43.75a8.7,8.7,0,0,1-3.91-1A21,21,0,0,1,24.89,38l-7.11-7.84a6.34,6.34,0,0,1-1.31-1.87,2.35,2.35,0,0,1,.31-2.41,2.32,2.32,0,0,1,2.28-.6,5.82,5.82,0,0,1,2,1c1.87,1.28,5.67,3.72,5.71,3.74a.37.37,0,0,1-.4.63s-3.85-2.46-5.73-3.75A5.36,5.36,0,0,0,18.89,26a1.61,1.61,0,0,0-1.55.38A1.63,1.63,0,0,0,17.17,28a5.72,5.72,0,0,0,1.16,1.63l7.11,7.85a20.15,20.15,0,0,0,5.32,4.64,6.57,6.57,0,0,0,6.5.06.37.37,0,0,1,.52.1.38.38,0,0,1-.11.52A6,6,0,0,1,34.32,43.75Z"/><path d="M25.21,23.93h-.06A38.84,38.84,0,0,1,18,22.17a3.66,3.66,0,0,1-1.94-1.7,3.07,3.07,0,0,1,.12-3,.38.38,0,0,1,.35-.17,104.83,104.83,0,0,1,13,2.07l.08,0L32,20.62a.37.37,0,0,1-.34.66l-2.37-1.2a102.34,102.34,0,0,0-12.58-2,2.51,2.51,0,0,0,0,2.08,3,3,0,0,0,1.58,1.34,38.44,38.44,0,0,0,6.94,1.71.37.37,0,0,1-.06.74Z"/><path d="M7.6,35.82a3.23,3.23,0,0,1-1.08,0,2.4,2.4,0,0,1-.92-.36,2.21,2.21,0,0,1-.68-.68,2.65,2.65,0,0,1-.28-2.06,2.13,2.13,0,0,1,.46-.85,2.8,2.8,0,0,1,.79-.6A3.48,3.48,0,0,1,8,31a2.76,2.76,0,0,1,.92.36A2.35,2.35,0,0,1,9.6,32,2.47,2.47,0,0,1,10,33a2.43,2.43,0,0,1-.07,1.05,2.26,2.26,0,0,1-.46.85,2.6,2.6,0,0,1-.79.59A3.53,3.53,0,0,1,7.6,35.82ZM7,31.25a2.8,2.8,0,0,0-.92.27,2.51,2.51,0,0,0-.71.52,2.28,2.28,0,0,0-.43.74,2.18,2.18,0,0,0-.07.93,2.21,2.21,0,0,0,.32.87,2.14,2.14,0,0,0,.61.59,2.3,2.3,0,0,0,.83.31,3,3,0,0,0,1,0,3.39,3.39,0,0,0,.92-.27,2.36,2.36,0,0,0,.71-.53A2.14,2.14,0,0,0,9.61,34,2.18,2.18,0,0,0,9.68,33a2.21,2.21,0,0,0-.32-.87,2.14,2.14,0,0,0-.61-.59,2.32,2.32,0,0,0-.83-.32A3,3,0,0,0,7,31.25Z"/><path d="M7.11,36.11a3.39,3.39,0,0,1-.64-.06,2.89,2.89,0,0,1-1-.4,2.54,2.54,0,0,1-.76-.77,2.57,2.57,0,0,1-.38-1.1,2.67,2.67,0,0,1,.07-1.17,2.47,2.47,0,0,1,.52-.94A2.75,2.75,0,0,1,5.78,31a3.67,3.67,0,0,1,1.11-.33,3.46,3.46,0,0,1,1.16,0,2.89,2.89,0,0,1,1,.4,2.43,2.43,0,0,1,.76.77A2.57,2.57,0,0,1,10.2,33a2.67,2.67,0,0,1-.07,1.17,2.55,2.55,0,0,1-.52.94,3,3,0,0,1-.87.65,3.68,3.68,0,0,1-1.11.34h0A4.73,4.73,0,0,1,7.11,36.11Zm.49-.29ZM7,31.5a2.92,2.92,0,0,0-.84.25,2.12,2.12,0,0,0-.63.47,1.71,1.71,0,0,0-.37.64,1.81,1.81,0,0,0-.06.81A1.7,1.7,0,0,0,5.91,35a2,2,0,0,0,.73.28,2.59,2.59,0,0,0,.88,0A2.76,2.76,0,0,0,8.35,35,2.21,2.21,0,0,0,9,34.53a1.85,1.85,0,0,0,.37-.64,1.81,1.81,0,0,0,.06-.81,1.76,1.76,0,0,0-.27-.76,1.82,1.82,0,0,0-.54-.53,2.12,2.12,0,0,0-.73-.27,2.87,2.87,0,0,0-.88,0Z"/><path d="M10.65,36.84l.88,2a2.56,2.56,0,0,1,.2.61,1.57,1.57,0,0,1,0,.57,1.05,1.05,0,0,1-.23.49,1.46,1.46,0,0,1-.53.37,1.35,1.35,0,0,1-.92.09,1.27,1.27,0,0,1-.74-.56h0a1.25,1.25,0,0,1,.06.59.91.91,0,0,1-.2.42,1.25,1.25,0,0,1-.37.31,4.92,4.92,0,0,1-.45.24l-.27.12-.24.12-.2.14a.48.48,0,0,0-.13.16l-.14-.33a.85.85,0,0,1,.34-.27l.45-.22.47-.23A1.1,1.1,0,0,0,9,41.14a.9.9,0,0,0,.15-.47A1.64,1.64,0,0,0,9,40L8.2,38.29l-2.15,1L5.92,39Zm-1.44,3a1.71,1.71,0,0,0,.28.45,1,1,0,0,0,.81.4,1.37,1.37,0,0,0,.53-.13,1,1,0,0,0,.41-.3,1,1,0,0,0,.19-.41,1.19,1.19,0,0,0,0-.46,2.21,2.21,0,0,0-.15-.48l-.75-1.68-2.08.93Z"/><path d="M7.5,42.76h0a.28.28,0,0,1-.22-.16l-.15-.32a.25.25,0,0,1,0-.26,1.25,1.25,0,0,1,.43-.35l.47-.22c.15-.07.3-.14.44-.22A.89.89,0,0,0,8.78,41a.61.61,0,0,0,.1-.32,1.37,1.37,0,0,0-.16-.58l-.65-1.45-1.92.86a.27.27,0,0,1-.34-.13l-.13-.3a.25.25,0,0,1,.13-.33l4.74-2.12a.25.25,0,0,1,.33.13l.89,2a3,3,0,0,1,.21.67,1.68,1.68,0,0,1,0,.67,1.38,1.38,0,0,1-.28.6,1.75,1.75,0,0,1-.62.45,1.62,1.62,0,0,1-1.1.1A1.8,1.8,0,0,1,9.61,41a1.17,1.17,0,0,1-.25.54,1.73,1.73,0,0,1-.44.36,2.73,2.73,0,0,1-.48.25l-.27.12L8,42.42l-.16.12a.13.13,0,0,0-.07.08A.27.27,0,0,1,7.5,42.76Zm1.94-3a1.7,1.7,0,0,0,.24.4,1.18,1.18,0,0,0,.28.23.84.84,0,0,0,.35.07,1.26,1.26,0,0,0,.42-.1.86.86,0,0,0,.31-.23.69.69,0,0,0,.14-.3,1.09,1.09,0,0,0,0-.36,1.69,1.69,0,0,0-.13-.42l-.65-1.45-1.61.71Z"/><path d="M13.2,41.73l.18.26L9.14,45,9,44.7Z"/><path d="M9.14,45.22a.25.25,0,0,1-.21-.11l-.19-.26a.28.28,0,0,1,0-.2.25.25,0,0,1,.11-.16l4.24-3a.27.27,0,0,1,.36.06l.18.27a.25.25,0,0,1,.05.19.29.29,0,0,1-.11.16l-4.25,3A.24.24,0,0,1,9.14,45.22Z"/><path d="M12.49,45.3a3.06,3.06,0,0,1,.84-.65,2.6,2.6,0,0,1,.94-.31,2.45,2.45,0,0,1,1,.08,2.32,2.32,0,0,1,.91.56,2.27,2.27,0,0,1,.48.6,2.33,2.33,0,0,1,.24.7,2.25,2.25,0,0,1,0,.73,2,2,0,0,1-.31.7l-.22-.21a2,2,0,0,0,.25-1.22,1.81,1.81,0,0,0-.6-1.1,1.9,1.9,0,0,0-.81-.48,2.09,2.09,0,0,0-.86-.06,2.4,2.4,0,0,0-.84.29,3.43,3.43,0,0,0-.74.59,3.58,3.58,0,0,0-.54.77,2.35,2.35,0,0,0-.23.83,1.9,1.9,0,0,0,.13.84,2.15,2.15,0,0,0,.55.78,2.21,2.21,0,0,0,.71.46,2,2,0,0,0,.75.12,1.85,1.85,0,0,0,.74-.22,2.47,2.47,0,0,0,.67-.56l-1.39-1.31.19-.2,1.59,1.5-1.74,1.85-.2-.19.76-.8h0a1.93,1.93,0,0,1-.56.18,2,2,0,0,1-.59,0,1.87,1.87,0,0,1-.58-.22,2.29,2.29,0,0,1-.54-.38,2.5,2.5,0,0,1-.62-.87,2.2,2.2,0,0,1-.16-.94,2.34,2.34,0,0,1,.24-.95A3.31,3.31,0,0,1,12.49,45.3Z"/><path d="M14.15,50.64a.26.26,0,0,1-.17-.07l-.21-.19a.26.26,0,0,1,0-.36l.18-.19a2.12,2.12,0,0,1-.44,0,2.69,2.69,0,0,1-.65-.24,2.28,2.28,0,0,1-.6-.43,2.49,2.49,0,0,1-.86-2,2.86,2.86,0,0,1,.27-1,3.56,3.56,0,0,1,.64-.94h0a3.81,3.81,0,0,1,.91-.7,3,3,0,0,1,1-.34,2.65,2.65,0,0,1,1.08.1,2.61,2.61,0,0,1,1,.61,2.57,2.57,0,0,1,.52.67,2.27,2.27,0,0,1,.27.78,2.52,2.52,0,0,1,0,.82,2.44,2.44,0,0,1-.35.8.27.27,0,0,1-.18.11.27.27,0,0,1-.21-.07l-.22-.21a.27.27,0,0,1-.05-.31,1.7,1.7,0,0,0,.23-1.07,1.59,1.59,0,0,0-.53-.94,1.72,1.72,0,0,0-1.45-.48,2.12,2.12,0,0,0-.75.27,2.9,2.9,0,0,0-.68.53,3.05,3.05,0,0,0-.5.71,2.12,2.12,0,0,0-.21.74,1.66,1.66,0,0,0,.12.72,1.88,1.88,0,0,0,.48.69,1.84,1.84,0,0,0,.63.41,1.59,1.59,0,0,0,.64.1,1.52,1.52,0,0,0,.64-.19,1.78,1.78,0,0,0,.43-.32l-1.2-1.13a.25.25,0,0,1-.08-.18.23.23,0,0,1,.06-.18l.19-.2a.26.26,0,0,1,.37,0l1.59,1.49a.25.25,0,0,1,.08.18.23.23,0,0,1-.07.18l-1.74,1.86a.3.3,0,0,1-.18.08Z"/><path d="M19.26,47.52l.27.17-2.7,4.42-.27-.17Z"/><path d="M16.83,52.37a.33.33,0,0,1-.13,0l-.27-.17a.25.25,0,0,1-.12-.16.22.22,0,0,1,0-.19L19,47.39a.27.27,0,0,1,.36-.09l.27.17a.21.21,0,0,1,.11.16.22.22,0,0,1,0,.19l-2.7,4.42A.26.26,0,0,1,16.83,52.37Z"/><path d="M21.12,48.65l.37.14,1.44,5.59h0l1.64-4.47.3.11L23.1,54.9l-.36-.13L21.3,49.14h0l-1.65,4.5-.3-.11Z"/><path d="M23.1,55.16l-.09,0L22.65,55a.29.29,0,0,1-.16-.18L21.25,50l-1.38,3.74a.24.24,0,0,1-.32.15l-.3-.11a.24.24,0,0,1-.15-.13.27.27,0,0,1,0-.2l1.79-4.86a.25.25,0,0,1,.32-.16l.38.14a.26.26,0,0,1,.16.18L23,53.55l1.36-3.72a.25.25,0,0,1,.13-.14.27.27,0,0,1,.2,0l.3.11a.26.26,0,0,1,.15.33L23.34,55A.27.27,0,0,1,23.1,55.16Z"/><path d="M28.11,50.49l.35,0,1.6,5.34-.34,0-.51-1.71-2.47-.21-.8,1.6-.34,0Zm1,3.35-.86-3h0l-1.4,2.82Z"/><path d="M30.06,56.11h0l-.34,0a.27.27,0,0,1-.22-.19L29,54.36l-2.13-.18-.72,1.45a.27.27,0,0,1-.25.14l-.34,0a.26.26,0,0,1-.2-.13.23.23,0,0,1,0-.24l2.51-5a.25.25,0,0,1,.25-.14l.35,0a.26.26,0,0,1,.22.18l1.61,5.33a.26.26,0,0,1,0,.24A.25.25,0,0,1,30.06,56.11Zm-2.8-2.69,1.53.13-.59-2Z"/><path d="M31.73,50.55l.32,0,.73,4.86,2.91-.44,0,.27-3.22.49Z"/><path d="M32.51,55.93a.24.24,0,0,1-.25-.22l-.78-5.12a.25.25,0,0,1,.05-.19.23.23,0,0,1,.17-.1l.31,0a.25.25,0,0,1,.29.21l.7,4.6,2.65-.4a.25.25,0,0,1,.19.05.23.23,0,0,1,.1.17l.05.27a.26.26,0,0,1-.22.29l-3.22.49Z"/><path d="M38.54,49l.27-.19,3.81,3.29h0L41.09,47.3l.33-.22,3.84,3.26h0L43.7,45.56l.28-.19,1.64,5.14-.31.2-3.9-3.29h0L43,52.29l-.3.19Z"/><path d="M42.65,52.74a.27.27,0,0,1-.16-.06l-4.12-3.49a.27.27,0,0,1-.09-.21.28.28,0,0,1,.12-.2l.27-.18a.26.26,0,0,1,.31,0l3.13,2.71-1.26-3.95a.26.26,0,0,1,.1-.3l.33-.22a.27.27,0,0,1,.31,0l3.17,2.69-1.3-3.93a.24.24,0,0,1,.1-.29l.28-.19a.24.24,0,0,1,.23,0,.28.28,0,0,1,.16.16l1.63,5.14a.27.27,0,0,1-.1.3l-.3.2a.27.27,0,0,1-.31,0l-3.24-2.74,1.29,4a.26.26,0,0,1-.11.29l-.29.2A.42.42,0,0,1,42.65,52.74Z"/><path d="M49.64,42.36a3.41,3.41,0,0,1,.74.78,2.61,2.61,0,0,1,.38.92,2.23,2.23,0,0,1,0,1,2.48,2.48,0,0,1-.47.95,2.62,2.62,0,0,1-.81.69,2.24,2.24,0,0,1-.93.26,2.42,2.42,0,0,1-1-.15,3.49,3.49,0,0,1-.94-.52,3.45,3.45,0,0,1-.74-.79,2.49,2.49,0,0,1-.38-.91,2.27,2.27,0,0,1,0-1,2.51,2.51,0,0,1,.48-.95,2.48,2.48,0,0,1,.8-.69,2.23,2.23,0,0,1,.93-.25,2.42,2.42,0,0,1,1,.15A3.24,3.24,0,0,1,49.64,42.36ZM46.81,46a3,3,0,0,0,.83.46,2.21,2.21,0,0,0,.87.14,2,2,0,0,0,.83-.21,2,2,0,0,0,.71-.59,2.05,2.05,0,0,0,.4-.83,2.08,2.08,0,0,0,0-.86,2.4,2.4,0,0,0-.35-.81,3.06,3.06,0,0,0-.66-.69,3,3,0,0,0-.83-.46,2.22,2.22,0,0,0-.87-.15,2.07,2.07,0,0,0-1.94,2.49,2.4,2.4,0,0,0,.35.81A3.11,3.11,0,0,0,46.81,46Z"/><path d="M48.41,47.18a2.83,2.83,0,0,1-.94-.17,3.41,3.41,0,0,1-1-.56,3.52,3.52,0,0,1-.79-.85,2.74,2.74,0,0,1-.42-1,2.63,2.63,0,0,1,0-1.08,2.92,2.92,0,0,1,1.41-1.81,2.56,2.56,0,0,1,1-.28,2.7,2.7,0,0,1,1.07.17,3.41,3.41,0,0,1,1,.56,3.48,3.48,0,0,1,.79.84A2.86,2.86,0,0,1,51,44a2.42,2.42,0,0,1,0,1.07,2.72,2.72,0,0,1-.52,1.05,2.76,2.76,0,0,1-.89.76,2.58,2.58,0,0,1-1,.29ZM47,45.79a3,3,0,0,0,.77.43,2.08,2.08,0,0,0,.77.13,1.72,1.72,0,0,0,.73-.19,1.68,1.68,0,0,0,.62-.52,1.76,1.76,0,0,0,.35-.73,1.84,1.84,0,0,0,0-.74,2.07,2.07,0,0,0-.31-.72,2.77,2.77,0,0,0-1.37-1.06,2,2,0,0,0-.77-.13,1.91,1.91,0,0,0-.73.18,1.85,1.85,0,0,0-.62.52,1.76,1.76,0,0,0-.35.73,1.89,1.89,0,0,0,0,.75,2.07,2.07,0,0,0,.31.72,2.75,2.75,0,0,0,.6.63Z"/><path d="M48.25,39.44l.8-2a3.81,3.81,0,0,1,.3-.57,1.55,1.55,0,0,1,.41-.4,1.11,1.11,0,0,1,.51-.18,1.38,1.38,0,0,1,.63.12,1.33,1.33,0,0,1,.71.6,1.3,1.3,0,0,1,.12.92h0a1.2,1.2,0,0,1,.38-.46.93.93,0,0,1,.45-.15,1.36,1.36,0,0,1,.48,0,4.5,4.5,0,0,1,.48.16l.28.11.26.09.23,0a.43.43,0,0,0,.2,0l-.13.33a.94.94,0,0,1-.43,0l-.48-.18L53,37.68a1.12,1.12,0,0,0-.48,0,.8.8,0,0,0-.44.22,1.68,1.68,0,0,0-.37.61L51,40.18l2.19.88-.12.29Zm3.17-1.07a1.73,1.73,0,0,0,.13-.52,1,1,0,0,0,0-.46,1.1,1.1,0,0,0-.24-.4,1.51,1.51,0,0,0-.47-.29,1,1,0,0,0-.5-.08,1,1,0,0,0-.42.14,1.29,1.29,0,0,0-.33.33,2.63,2.63,0,0,0-.24.44l-.68,1.71,2.11.84Z"/><path d="M53.07,41.61l-.09,0-4.82-1.91a.32.32,0,0,1-.14-.14.23.23,0,0,1,0-.2l.8-2a3.61,3.61,0,0,1,.32-.62,1.94,1.94,0,0,1,.48-.47,1.35,1.35,0,0,1,.63-.21,1.63,1.63,0,0,1,.75.13,1.6,1.6,0,0,1,.84.71,1.3,1.3,0,0,1,.14.39,1.22,1.22,0,0,1,.57-.2,1.81,1.81,0,0,1,.56.06l.51.17.28.11.23.08.19,0a.2.2,0,0,0,.11,0,.26.26,0,0,1,.31.34l-.13.33a.27.27,0,0,1-.2.16,1.22,1.22,0,0,1-.56-.07l-.48-.18-.47-.16a1,1,0,0,0-.37,0,.63.63,0,0,0-.3.16,1.29,1.29,0,0,0-.31.52L51.33,40l2,.78a.25.25,0,0,1,.15.33l-.12.3a.27.27,0,0,1-.14.14ZM49,39.1l1.64.65.58-1.48a1.93,1.93,0,0,0,.12-.44.85.85,0,0,0,0-.36.67.67,0,0,0-.18-.3,1,1,0,0,0-.37-.23.79.79,0,0,0-.38-.07A.76.76,0,0,0,50,37a1,1,0,0,0-.26.25,2.42,2.42,0,0,0-.21.39Zm2.46-.73h0Z"/><path d="M50,34.36l0-.32,3,.35-2.58-3.58,0-.41L52.35,33l3.3-2.15,0,.4-3.06,2,.85,1.18,1.82.22,0,.31Z"/><path d="M55.17,35.22h0L50,34.62a.27.27,0,0,1-.17-.1.25.25,0,0,1,0-.19l0-.32a.27.27,0,0,1,.29-.22l2.38.28L50.23,31a.25.25,0,0,1,0-.18l0-.41a.25.25,0,0,1,.19-.22.24.24,0,0,1,.27.1l1.73,2.4,3.09-2a.25.25,0,0,1,.39.24l0,.4a.25.25,0,0,1-.12.18l-2.83,1.86.62.87,1.71.2a.25.25,0,0,1,.17.1.25.25,0,0,1,.05.19l0,.31A.25.25,0,0,1,55.17,35.22Z"/><path d="M30,60A30,30,0,1,1,60,30,30,30,0,0,1,30,60ZM30,.64A29.36,29.36,0,1,0,59.36,30,29.39,29.39,0,0,0,30,.64Z"/></g></g></svg>
